<<<<<<< HEAD
<mxfile host="65bd71144e">
    <diagram name="Class Diagram - Jacquin Music Academy" id="Q9go1XrXn5y4SbsYZBdf">
        <mxGraphModel dx="1355" dy="825" grid="1" gridSize="10" guides="1" tooltips="1" connect="1" arrows="1" fold="1" page="1" pageScale="1" pageWidth="827" pageHeight="1169" math="0" shadow="0">
            <root>
                <mxCell id="0"/>
                <mxCell id="1" parent="0"/>
                <mxCell id="2" value="&lt;b&gt;Person&lt;/b&gt;&lt;br&gt;- id: int&lt;br&gt;- name: String&lt;br&gt;- email: String" style="shape=swimlane;childLayout=stackLayout;html=1;startSize=80;" parent="1" vertex="1">
                    <mxGeometry x="40" y="20" width="180" height="160" as="geometry"/>
                </mxCell>
                <mxCell id="3" value="&lt;b&gt;Student&lt;/b&gt;&lt;br&gt;- instrument: String&lt;br&gt;- progress: float" style="shape=swimlane;childLayout=stackLayout;html=1;startSize=70;" parent="1" vertex="1">
                    <mxGeometry x="310" y="20" width="180" height="140" as="geometry"/>
                </mxCell>
                <mxCell id="4" style="endArrow=block;html=1;" parent="1" source="3" target="2" edge="1">
                    <mxGeometry relative="1" as="geometry"/>
                </mxCell>
                <mxCell id="5" value="&lt;b&gt;Teacher&lt;/b&gt;&lt;br&gt;- specialty: String&lt;br&gt;- schedule: String" style="shape=swimlane;childLayout=stackLayout;html=1;startSize=60;" parent="1" vertex="1">
                    <mxGeometry x="310" y="320" width="180" height="120" as="geometry"/>
                </mxCell>
                <mxCell id="6" style="endArrow=block;html=1;" parent="1" source="5" target="2" edge="1">
                    <mxGeometry relative="1" as="geometry"/>
                </mxCell>
                <mxCell id="7" value="&lt;b&gt;Course&lt;/b&gt;&lt;br&gt;- courseId: int&lt;br&gt;- name: String&lt;br&gt;- classroom: String" style="shape=swimlane;childLayout=stackLayout;html=1;startSize=70;" parent="1" vertex="1">
                    <mxGeometry x="550" y="180" width="180" height="140" as="geometry"/>
                </mxCell>
                <mxCell id="8" value="enrollment" style="endArrow=none;dashed=1;html=1;" parent="1" source="3" target="7" edge="1">
                    <mxGeometry relative="1" as="geometry"/>
                </mxCell>
                <mxCell id="9" value="teaches" style="endArrow=none;dashed=1;html=1;" parent="1" source="5" target="7" edge="1">
                    <mxGeometry relative="1" as="geometry"/>
                </mxCell>
                <mxCell id="10" value="&lt;b&gt;Administrator&lt;/b&gt;&lt;br&gt;- role: String" style="shape=swimlane;childLayout=stackLayout;html=1;startSize=60;" parent="1" vertex="1">
                    <mxGeometry x="40" y="320" width="180" height="120" as="geometry"/>
                </mxCell>
                <mxCell id="11" style="endArrow=block;html=1;" parent="1" source="10" target="2" edge="1">
                    <mxGeometry relative="1" as="geometry"/>
                </mxCell>
            </root>
        </mxGraphModel>
    </diagram>
</mxfile>
=======
<mxfile host="65bd71144e">
    <diagram name="JacquinAcademiaMusical" id="U4nUlGQXAEVdlQfK0Fxa">
        <mxGraphModel dx="1355" dy="825" grid="1" gridSize="10" guides="1" tooltips="1" connect="1" arrows="1" fold="1" page="1" pageScale="1" pageWidth="827" pageHeight="1169" math="0" shadow="0">
            <root>
                <mxCell id="0"/>
                <mxCell id="1" parent="0"/>
                <mxCell id="2" value="&lt;b&gt;Estudiante&lt;/b&gt;&#xa;idEstudiante: int&#xa;nombre: String&#xa;correo: String" style="shape=swimlane;whiteSpace=wrap;html=1;" parent="1" vertex="1">
                    <mxGeometry x="80" y="100" width="160" height="120" as="geometry"/>
                </mxCell>
                <mxCell id="3" value="&lt;b&gt;Profesor&lt;/b&gt;&#xa;idProfesor: int&#xa;nombre: String&#xa;especialidad: String" style="shape=swimlane;whiteSpace=wrap;html=1;" parent="1" vertex="1">
                    <mxGeometry x="290" y="300" width="160" height="120" as="geometry"/>
                </mxCell>
                <mxCell id="4" value="&lt;b&gt;Curso&lt;/b&gt;&#xa;idCurso: int&#xa;nombre: String&#xa;horario: String" style="shape=swimlane;whiteSpace=wrap;html=1;" parent="1" vertex="1">
                    <mxGeometry x="440" y="40" width="160" height="120" as="geometry"/>
                </mxCell>
                <mxCell id="5" style="endArrow=block;html=1;" parent="1" source="2" target="4" edge="1">
                    <mxGeometry relative="1" as="geometry"/>
                </mxCell>
                <mxCell id="6" style="endArrow=block;html=1;" parent="1" source="3" target="4" edge="1">
                    <mxGeometry relative="1" as="geometry"/>
                </mxCell>
            </root>
        </mxGraphModel>
    </diagram>
</mxfile>
>>>>>>> 09a0b10fd79209a0bc969e00e3789388bde51d4b